<svg xmlns="http://www.w3.org/2000/svg" width="183.26" height="128.71" viewBox="0 0 183.26 128.71">
  <defs>
    <style>
      .a {
        fill: #f7a006;
      }

      .b {
        fill: #2c1760;
      }

      .c {
        fill: #6042bc;
      }

      .d {
        fill: #8ad3e3;
      }
    </style>
  </defs>
  <g>
    <path d="M82.05,64.29,76.23,43.91a.53.53,0,0,0-.6-.37l-4.75.83a.56.56,0,0,0-.41.35L63.88,63.37l-11.44,2,.9-17.27a.52.52,0,0,0-.62-.54l-4.19.73a.53.53,0,0,0-.43.49L47,70.41a.53.53,0,0,0,.62.55L62.1,68.4h0l5.09-.9a.52.52,0,0,0,.41-.36L69,62.46l6.7-1.18,1,4a.52.52,0,0,0,.6.4L81.64,65A.53.53,0,0,0,82.05,64.29ZM70.5,57.8,72,53.17c.47-1.49,1.08-4.05,1.08-4.05h.06s.35,2.39.66,3.75l1,4.2Zm31.62-18.28-.71,13.68A11.08,11.08,0,0,1,92,63.51c-5.46,1-8.81-2-8.55-7.14l.72-13.93a.54.54,0,0,1,.44-.49l4.19-.74a.52.52,0,0,1,.61.55l-.71,13.68c-.12,2.38,1.28,3.39,3.53,3a4.4,4.4,0,0,0,3.91-4.3l.73-13.93a.53.53,0,0,1,.43-.49L101.5,39A.54.54,0,0,1,102.12,39.52Zm2.32,20.76,1.12-21.61a.52.52,0,0,1,.43-.49l4.54-.8a.54.54,0,0,1,.55.26l5.2,9.23a30.49,30.49,0,0,1,1.6,3.55h.06s-.11-2.4,0-3.83l.52-10.18a.54.54,0,0,1,.44-.49l4.19-.74a.52.52,0,0,1,.61.55l-1.12,21.61a.52.52,0,0,1-.43.49l-4.51.79a.53.53,0,0,1-.55-.25l-5.24-9.19a33.16,33.16,0,0,1-1.6-3.56h-.06s.12,2.4,0,3.83l-.52,10.15a.54.54,0,0,1-.44.49l-4.19.74A.52.52,0,0,1,104.44,60.28ZM126,45.85a14.85,14.85,0,0,1,11.86-13.67c4.21-.74,6.7.82,7.55,1.5a.52.52,0,0,1,.11.67l-2.15,3.74a.51.51,0,0,1-.73.18,6.86,6.86,0,0,0-4.8-1.05,7.87,7.87,0,0,0-6.4,7.54c-.18,3.36,1.74,6.45,5.71,5.75,2.57-.45,4.74-2.58,5.53-3.43a.38.38,0,0,1,.6.05l2,2.85a.51.51,0,0,1,0,.63,15.27,15.27,0,0,1-8.59,5C129.93,56.82,125.66,52.57,126,45.85ZM167.62,28,166.5,49.58a.52.52,0,0,1-.43.49l-4.19.74a.53.53,0,0,1-.62-.55l.43-8.22-7.8,1.37-.44,8.47a.53.53,0,0,1-.44.49l-4.18.74a.53.53,0,0,1-.62-.55L149.33,31a.53.53,0,0,1,.43-.5l4.19-.73a.52.52,0,0,1,.62.54l-.44,8.42,7.8-1.38.45-8.66a.54.54,0,0,1,.44-.49l4.19-.74A.52.52,0,0,1,167.62,28ZM79.78,74.61a.51.51,0,0,1,.15.66l-2,4a.53.53,0,0,1-.74.21A6.3,6.3,0,0,0,73,78.65a2.64,2.64,0,0,0-2.38,2.18c-.14,2.86,9.55.65,9.17,7.82A9.21,9.21,0,0,1,71.89,97a9,9,0,0,1-7.32-1.55.52.52,0,0,1-.1-.69l2.44-3.85a.52.52,0,0,1,.72-.17,6.62,6.62,0,0,0,4.59,1.14,2.52,2.52,0,0,0,2.34-2.21C74.7,87,65,88.8,65.4,81.82c.22-4.19,3.69-7.53,7.95-8.29C76.91,72.91,79,74.05,79.78,74.61Zm21.66-3.2a.5.5,0,0,1,.12.66l-2.15,3.75a.51.51,0,0,1-.73.18,6.89,6.89,0,0,0-4.81-1,7.87,7.87,0,0,0-6.4,7.54c-.17,3.36,1.75,6.45,5.71,5.75,2.58-.45,4.75-2.58,5.53-3.43a.38.38,0,0,1,.6,0l2,2.84a.52.52,0,0,1,0,.64,15.27,15.27,0,0,1-8.59,5C86,94.55,81.68,90.3,82,83.58A14.86,14.86,0,0,1,93.89,69.91C98.11,69.17,100.59,70.73,101.44,71.41Zm12.81-5.09a14.78,14.78,0,0,0-11.83,13.57c-.35,6.66,4.13,11,10.61,9.88s11.5-7.18,11.84-13.84S120.73,65.18,114.25,66.32Zm-1,18.38c-3.22.56-5.65-1.9-5.45-5.77.2-3.71,2.92-7,6.14-7.53s5.64,1.77,5.45,5.49C119.24,80.76,116.51,84.13,113.3,84.7Zm53.17-26.55-.19,3.68a.54.54,0,0,1-.44.49l-6.1,1.08-.91,17.51a.52.52,0,0,1-.43.49l-4.19.74a.53.53,0,0,1-.62-.55l.9-17.27-8.78,1.55-.5,9.58a11.06,11.06,0,0,1-9.4,10.31c-5.46,1-8.81-2-8.55-7.14L128,64.69a.53.53,0,0,1,.43-.49l4.19-.74a.54.54,0,0,1,.62.55l-.71,13.68c-.13,2.38,1.28,3.39,3.53,3A4.44,4.44,0,0,0,140,76.38l.72-13.92a.53.53,0,0,1,.43-.5l1.9-.33h0l22.84-4A.53.53,0,0,1,166.47,58.15Z"/>
    <g>
      <path class="a" d="M25.87,74.49A2.28,2.28,0,0,1,25.48,70l10.3-1.82a2.28,2.28,0,1,1,.8,4.49L26.27,74.45A2.71,2.71,0,0,1,25.87,74.49Z"/>
      <path class="b" d="M17.92,87.72a2.28,2.28,0,0,1-.39-4.53l39.73-7a2.28,2.28,0,0,1,.79,4.5l-39.73,7A1.81,1.81,0,0,1,17.92,87.72Z"/>
      <path class="c" d="M47,91a2.32,2.32,0,0,1-.89-.18,2.28,2.28,0,0,1-1.21-3,21.06,21.06,0,0,1,12-11.58,2.28,2.28,0,1,1,1.62,4.26,16.59,16.59,0,0,0-9.44,9.1A2.27,2.27,0,0,1,47,91Z"/>
      <path class="d" d="M45.74,101.3a2.3,2.3,0,0,1-2.26-1.93,21.22,21.22,0,0,1,1.44-11.51,2.28,2.28,0,0,1,4.2,1.78,16.65,16.65,0,0,0-1.13,9,2.27,2.27,0,0,1-1.9,2.6Z"/>
    </g>
  </g>
</svg>
